# Blender v3.0.1 OBJ File: 'linusworld.blend'
# www.blender.org
mtllib linusworld.mtl
o Cube__6__Scene
v 201.799988 -159.999969 141.399994
v 201.799988 -160.000031 -98.599991
v 161.799988 -159.999969 141.399994
v 161.799988 -160.000015 -98.599991
v 161.799988 -199.999969 141.400009
v 161.799988 -200.000015 -98.599976
v 201.799988 -199.999969 141.400009
v 201.799988 -200.000031 -98.599976
vt 1.000000 0.000000
vt 0.000000 0.000000
vt 0.000000 1.000000
vt 1.000000 1.000000
vt 1.000000 0.000000
vt 1.000000 1.000000
vt 0.000000 1.000000
vt 0.000000 0.000000
vt 1.000000 1.000000
vt 1.000000 0.000000
vt 0.000000 1.000000
vt 1.000000 1.000000
vt 0.000000 1.000000
vt 0.000000 0.000000
vt 1.000000 0.000000
vt 0.000000 0.000000
vn -0.0000 -1.0000 0.0000
vn 0.0000 -0.0000 -1.0000
vn 0.0000 0.0000 1.0000
vn 1.0000 0.0000 0.0000
vn 0.0000 1.0000 -0.0000
vn -1.0000 0.0000 0.0000
g Cube__6__Scene_Face
usemtl Face
s 1
f 8/1/1 7/2/1 5/3/1 6/4/1
f 6/5/2 4/6/2 2/7/2 8/8/2
f 3/9/3 5/10/3 7/2/3 1/11/3
f 2/12/4 1/11/4 7/2/4 8/1/4
f 4/6/5 3/13/5 1/14/5 2/15/5
f 6/5/6 5/16/6 3/13/6 4/6/6
o Cube__8__Scene
v 201.800064 -200.000015 101.399979
v 201.800125 199.999954 101.399979
v 201.800064 -200.000015 141.399979
v 201.800125 199.999954 141.399979
v -198.199905 -199.999954 141.400040
v -198.199844 200.000015 141.400040
v -198.199905 -199.999954 101.400040
v -198.199844 200.000015 101.400040
vt 1.000000 0.000000
vt 0.000000 0.000000
vt 0.000000 1.000000
vt 1.000000 1.000000
vt 1.000000 0.000000
vt 1.000000 1.000000
vt 0.000000 1.000000
vt 0.000000 0.000000
vt 1.000000 1.000000
vt 1.000000 0.000000
vt 0.000000 1.000000
vt 1.000000 1.000000
vt 0.000000 1.000000
vt 0.000000 0.000000
vt 1.000000 0.000000
vt 0.000000 0.000000
vn -1.0000 0.0000 0.0000
vn 0.0000 1.0000 0.0000
vn -0.0000 -1.0000 0.0000
vn -0.0000 0.0000 -1.0000
vn 1.0000 -0.0000 0.0000
vn 0.0000 -0.0000 1.0000
g Cube__8__Scene_Face
usemtl Face
s 1
f 16/17/7 15/18/7 13/19/7 14/20/7
f 14/21/8 12/22/8 10/23/8 16/24/8
f 11/25/9 13/26/9 15/18/9 9/27/9
f 10/28/10 9/27/10 15/18/10 16/17/10
f 12/22/11 11/29/11 9/30/11 10/31/11
f 14/21/12 13/32/12 11/29/12 12/22/12
o Plane_Scene.001
v -398.199982 799.999939 -98.600060
v -398.199982 639.999939 -98.600060
v -398.199982 479.999969 -98.600060
v -398.199982 319.999969 -98.600060
v -398.199982 159.999985 -98.600060
v -398.199982 0.000000 -98.600060
v -398.199982 -160.000031 -98.600060
v -398.199982 -319.999969 -98.600060
v -398.199982 -479.999969 -98.600060
v -398.199982 -640.000061 -98.600060
v -398.199982 -799.999939 -98.600060
v -318.199982 799.999939 -98.600044
v -318.199982 639.999939 -98.600044
v -318.199982 479.999969 -98.600044
v -318.199982 319.999969 -98.600044
v -318.199982 159.999985 -98.600044
v -318.199982 0.000000 -98.600044
v -318.199982 -160.000031 -98.600044
v -318.199982 -319.999969 -98.600044
v -318.199982 -479.999969 -98.600044
v -318.199982 -640.000061 -98.600044
v -318.199982 -799.999939 -98.600044
v -238.200012 799.999939 -98.600029
v -238.200012 639.999939 -98.600029
v -238.200012 479.999969 -98.600029
v -238.200012 319.999969 -98.600029
v -238.200012 159.999985 -98.600029
v -238.200012 0.000000 -98.600029
v -238.200012 -160.000031 -98.600029
v -238.200012 -319.999969 -98.600029
v -238.200012 -479.999969 -98.600029
v -238.200012 -640.000061 -98.600029
v -238.200012 -799.999939 -98.600029
v -158.199982 799.999939 -98.600021
v -158.199982 639.999939 -98.600021
v -158.199982 479.999969 -98.600021
v -158.199982 319.999969 -98.600021
v -158.199982 159.999985 -98.600021
v -158.199982 0.000000 -98.600021
v -158.199982 -160.000031 -98.600021
v -158.199982 -319.999969 -98.600021
v -158.199982 -479.999969 -98.600021
v -158.199982 -640.000061 -98.600021
v -158.199982 -799.999939 -98.600021
v -78.199982 799.999939 -98.600006
v -78.199982 639.999939 -98.600006
v -78.199982 479.999969 -98.600006
v -78.199982 319.999969 -98.600006
v -78.199982 159.999985 -98.600006
v -78.199982 0.000000 -98.600006
v -78.199982 -160.000031 -98.600006
v -78.199982 -319.999969 -98.600006
v -78.199982 -479.999969 -98.600006
v -78.199982 -640.000061 -98.600006
v -78.199982 -799.999939 -98.600006
v 1.800003 799.999939 -98.599991
v 1.800003 639.999939 -98.599991
v 1.800003 479.999969 -98.599991
v 1.800003 319.999969 -98.599991
v 1.800003 159.999985 -98.599991
v 1.800003 0.000000 -98.599991
v 1.800003 -160.000031 -98.599991
v 1.800003 -319.999969 -98.599991
v 1.800003 -479.999969 -98.599991
v 1.800003 -640.000061 -98.599991
v 1.800003 -799.999939 -98.599991
v 81.800018 799.999939 -98.599976
v 81.800018 639.999939 -98.599976
v 81.800018 479.999969 -98.599976
v 81.800018 319.999969 -98.599976
v 81.800018 159.999985 -98.599976
v 81.800018 0.000000 -98.599976
v 81.800018 -160.000031 -98.599976
v 81.800018 -319.999969 -98.599976
v 81.800018 -479.999969 -98.599976
v 81.800018 -640.000061 -98.599976
v 81.800018 -799.999939 -98.599976
v 161.799988 799.999939 -98.599968
v 161.799988 639.999939 -98.599968
v 161.799988 479.999969 -98.599968
v 161.799988 319.999969 -98.599968
v 161.799988 159.999985 -98.599968
v 161.799988 0.000000 -98.599968
v 161.799988 -160.000031 -98.599968
v 161.799988 -319.999969 -98.599968
v 161.799988 -479.999969 -98.599968
v 161.799988 -640.000061 -98.599968
v 161.799988 -799.999939 -98.599968
v 241.799957 799.999939 -98.599953
v 241.799957 639.999939 -98.599953
v 241.799957 479.999969 -98.599953
v 241.799957 319.999969 -98.599953
v 241.799957 159.999985 -98.599953
v 241.799957 0.000000 -98.599953
v 241.799957 -160.000031 -98.599953
v 241.799957 -319.999969 -98.599953
v 241.799957 -479.999969 -98.599953
v 241.799957 -640.000061 -98.599953
v 241.799957 -799.999939 -98.599953
v 321.800018 799.999939 -98.599937
v 321.800018 639.999939 -98.599937
v 321.800018 479.999969 -98.599937
v 321.800018 319.999969 -98.599937
v 321.800018 159.999985 -98.599937
v 321.800018 0.000000 -98.599937
v 321.800018 -160.000031 -98.599937
v 321.800018 -319.999969 -98.599937
v 321.800018 -479.999969 -98.599937
v 321.800018 -640.000061 -98.599937
v 321.800018 -799.999939 -98.599937
v 401.799957 799.999939 -98.599930
v 401.799957 639.999939 -98.599930
v 401.799957 479.999969 -98.599930
v 401.799957 319.999969 -98.599930
v 401.799957 159.999985 -98.599930
v 401.799957 0.000000 -98.599930
v 401.799957 -160.000031 -98.599930
v 401.799957 -319.999969 -98.599930
v 401.799957 -479.999969 -98.599930
v 401.799957 -640.000061 -98.599930
v 401.799957 -799.999939 -98.599930
vt 0.200000 0.100000
vt 0.300000 0.100000
vt 0.300000 0.200000
vt 0.200000 0.200000
vt 0.100000 0.100000
vt 0.100000 0.200000
vt 0.300000 0.300000
vt 0.200000 0.300000
vt 0.000000 0.100000
vt 0.000000 0.200000
vt 0.100000 0.300000
vt 0.300000 0.400000
vt 0.200000 0.400000
vt 0.400000 0.200000
vt 0.400000 0.100000
vt 0.000000 0.300000
vt 0.100000 0.400000
vt 0.300000 0.500000
vt 0.200000 0.500000
vt 1.000000 0.100000
vt 0.900000 0.100000
vt 0.900000 0.000000
vt 1.000000 0.000000
vt 0.400000 0.300000
vt 0.000000 0.400000
vt 0.100000 0.500000
vt 0.300000 0.600000
vt 0.200000 0.600000
vt 0.800000 0.100000
vt 0.800000 0.000000
vt 1.000000 0.200000
vt 0.900000 0.200000
vt 0.400000 0.400000
vt 0.000000 0.500000
vt 0.100000 0.600000
vt 0.300000 0.700000
vt 0.200000 0.700000
vt 0.700000 0.100000
vt 0.700000 0.000000
vt 0.800000 0.200000
vt 1.000000 0.300000
vt 0.900000 0.300000
vt 0.400000 0.500000
vt 0.000000 0.600000
vt 0.100000 0.700000
vt 0.300000 0.800000
vt 0.200000 0.800000
vt 0.600000 0.100000
vt 0.600000 0.000000
vt 0.700000 0.200000
vt 0.800000 0.300000
vt 1.000000 0.400000
vt 0.900000 0.400000
vt 0.400000 0.600000
vt 0.000000 0.700000
vt 0.100000 0.800000
vt 0.300000 0.900000
vt 0.200000 0.900000
vt 0.300000 1.000000
vt 0.200000 1.000000
vt 0.100000 0.900000
vt 0.000000 0.800000
vt 0.400000 0.700000
vt 1.000000 0.500000
vt 0.900000 0.500000
vt 0.100000 0.000000
vt 0.200000 0.000000
vt 0.100000 1.000000
vt 0.700000 0.700000
vt 0.600000 0.700000
vt 0.600000 0.600000
vt 0.700000 0.600000
vt 0.000000 0.900000
vt 0.000000 1.000000
vt 0.300000 0.000000
vt 0.400000 0.000000
vt 0.400000 0.900000
vt 0.400000 0.800000
vt 1.000000 0.600000
vt 0.900000 0.600000
vt 0.400000 1.000000
vt 1.000000 0.700000
vt 0.900000 0.700000
vt 1.000000 0.800000
vt 0.900000 0.800000
vt 1.000000 0.900000
vt 0.900000 0.900000
vt 1.000000 1.000000
vt 0.900000 1.000000
vt 0.800000 0.900000
vt 0.800000 0.800000
vt 0.800000 0.700000
vt 0.800000 0.600000
vt 0.800000 0.500000
vt 0.800000 1.000000
vt 0.700000 1.000000
vt 0.700000 0.900000
vt 0.700000 0.800000
vt 0.600000 1.000000
vt 0.600000 0.900000
vt 0.600000 0.800000
vt 0.500000 1.000000
vt 0.500000 0.900000
vt 0.500000 0.800000
vt 0.500000 0.700000
vt 0.500000 0.600000
vt 0.500000 0.500000
vt 0.600000 0.500000
vt 0.500000 0.400000
vt 0.700000 0.500000
vt 0.600000 0.400000
vt 0.500000 0.300000
vt 0.500000 0.200000
vt 0.700000 0.400000
vt 0.600000 0.300000
vt 0.800000 0.400000
vt 0.500000 0.100000
vt 0.700000 0.300000
vt 0.600000 0.200000
vt 0.500000 0.000000
vt 0.000000 0.000000
vn -0.0000 0.0000 1.0000
g Plane_Scene.001_Face
usemtl Face
s 1
f 30/33/13 31/34/13 42/35/13 41/36/13
f 29/37/13 30/33/13 41/36/13 40/38/13
f 41/36/13 42/35/13 53/39/13 52/40/13
f 28/41/13 29/37/13 40/38/13 39/42/13
f 40/38/13 41/36/13 52/40/13 51/43/13
f 52/40/13 53/39/13 64/44/13 63/45/13
f 43/46/13 42/35/13 31/34/13 32/47/13
f 39/42/13 40/38/13 51/43/13 50/48/13
f 51/43/13 52/40/13 63/45/13 62/49/13
f 63/45/13 64/44/13 75/50/13 74/51/13
f 38/52/13 37/53/13 26/54/13 27/55/13
f 42/35/13 43/46/13 54/56/13 53/39/13
f 50/48/13 51/43/13 62/49/13 61/57/13
f 62/49/13 63/45/13 74/51/13 73/58/13
f 74/51/13 75/50/13 86/59/13 85/60/13
f 37/53/13 36/61/13 25/62/13 26/54/13
f 49/63/13 48/64/13 37/53/13 38/52/13
f 53/39/13 54/56/13 65/65/13 64/44/13
f 61/57/13 62/49/13 73/58/13 72/66/13
f 73/58/13 74/51/13 85/60/13 84/67/13
f 85/60/13 86/59/13 97/68/13 96/69/13
f 36/61/13 35/70/13 24/71/13 25/62/13
f 48/64/13 47/72/13 36/61/13 37/53/13
f 60/73/13 59/74/13 48/64/13 49/63/13
f 64/44/13 65/65/13 76/75/13 75/50/13
f 72/66/13 73/58/13 84/67/13 83/76/13
f 84/67/13 85/60/13 96/69/13 95/77/13
f 108/78/13 107/79/13 96/69/13 97/68/13
f 35/70/13 34/80/13 23/81/13 24/71/13
f 47/72/13 46/82/13 35/70/13 36/61/13
f 59/74/13 58/83/13 47/72/13 48/64/13
f 71/84/13 70/85/13 59/74/13 60/73/13
f 75/50/13 76/75/13 87/86/13 86/59/13
f 83/76/13 84/67/13 95/77/13 94/87/13
f 95/77/13 96/69/13 107/79/13 106/88/13
f 119/89/13 118/90/13 107/79/13 108/78/13
f 130/91/13 129/92/13 118/90/13 119/89/13
f 118/90/13 117/93/13 106/88/13 107/79/13
f 94/87/13 95/77/13 106/88/13 105/94/13
f 98/95/13 97/68/13 86/59/13 87/86/13
f 82/96/13 81/97/13 70/85/13 71/84/13
f 18/98/13 19/99/13 30/33/13 29/37/13
f 129/92/13 128/100/13 117/93/13 118/90/13
f 101/101/13 100/102/13 89/103/13 90/104/13
f 105/94/13 106/88/13 117/93/13 116/105/13
f 128/100/13 127/106/13 116/105/13 117/93/13
f 32/47/13 31/34/13 20/107/13 21/108/13
f 120/109/13 119/89/13 108/78/13 109/110/13
f 93/111/13 92/112/13 81/97/13 82/96/13
f 131/113/13 130/91/13 119/89/13 120/109/13
f 31/34/13 30/33/13 19/99/13 20/107/13
f 104/114/13 103/115/13 92/112/13 93/111/13
f 115/116/13 114/117/13 103/115/13 104/114/13
f 126/118/13 125/119/13 114/117/13 115/116/13
f 137/120/13 136/121/13 125/119/13 126/118/13
f 109/110/13 108/78/13 97/68/13 98/95/13
f 125/119/13 124/122/13 113/123/13 114/117/13
f 114/117/13 113/123/13 102/124/13 103/115/13
f 103/115/13 102/124/13 91/125/13 92/112/13
f 92/112/13 91/125/13 80/126/13 81/97/13
f 135/127/13 134/128/13 123/129/13 124/122/13
f 124/122/13 123/129/13 112/130/13 113/123/13
f 113/123/13 112/130/13 101/101/13 102/124/13
f 102/124/13 101/101/13 90/104/13 91/125/13
f 134/128/13 133/131/13 122/132/13 123/129/13
f 123/129/13 122/132/13 111/133/13 112/130/13
f 112/130/13 111/133/13 100/102/13 101/101/13
f 133/131/13 132/134/13 121/135/13 122/132/13
f 122/132/13 121/135/13 110/136/13 111/133/13
f 136/121/13 135/127/13 124/122/13 125/119/13
f 121/135/13 120/109/13 109/110/13 110/136/13
f 110/136/13 109/110/13 98/95/13 99/137/13
f 111/133/13 110/136/13 99/137/13 100/102/13
f 99/137/13 98/95/13 87/86/13 88/138/13
f 100/102/13 99/137/13 88/138/13 89/103/13
f 88/138/13 87/86/13 76/75/13 77/139/13
f 132/134/13 131/113/13 120/109/13 121/135/13
f 89/103/13 88/138/13 77/139/13 78/140/13
f 65/65/13 66/141/13 77/139/13 76/75/13
f 90/104/13 89/103/13 78/140/13 79/142/13
f 78/140/13 77/139/13 66/141/13 67/143/13
f 54/56/13 55/144/13 66/141/13 65/65/13
f 91/125/13 90/104/13 79/142/13 80/126/13
f 55/144/13 54/56/13 43/46/13 44/145/13
f 79/142/13 78/140/13 67/143/13 68/146/13
f 67/143/13 66/141/13 55/144/13 56/147/13
f 80/126/13 79/142/13 68/146/13 69/148/13
f 44/145/13 43/46/13 32/47/13 33/149/13
f 68/146/13 67/143/13 56/147/13 57/150/13
f 56/147/13 55/144/13 44/145/13 45/151/13
f 81/97/13 80/126/13 69/148/13 70/85/13
f 33/149/13 32/47/13 21/108/13 22/152/13
f 45/151/13 44/145/13 33/149/13 34/80/13
f 69/148/13 68/146/13 57/150/13 58/83/13
f 57/150/13 56/147/13 45/151/13 46/82/13
f 70/85/13 69/148/13 58/83/13 59/74/13
f 34/80/13 33/149/13 22/152/13 23/81/13
f 58/83/13 57/150/13 46/82/13 47/72/13
f 46/82/13 45/151/13 34/80/13 35/70/13
f 17/153/13 18/98/13 29/37/13 28/41/13
o Cube__7__Scene
v 201.799988 200.000031 141.399994
v 201.799988 199.999969 -98.599991
v 161.799988 200.000031 141.399994
v 161.799988 199.999985 -98.599991
v 161.799988 160.000031 141.400009
v 161.799988 159.999985 -98.599976
v 201.799988 160.000031 141.400009
v 201.799988 159.999969 -98.599976
vt 1.000000 0.000000
vt 0.000000 0.000000
vt 0.000000 1.000000
vt 1.000000 1.000000
vt 1.000000 0.000000
vt 1.000000 1.000000
vt 0.000000 1.000000
vt 0.000000 0.000000
vt 1.000000 1.000000
vt 1.000000 0.000000
vt 0.000000 1.000000
vt 1.000000 1.000000
vt 0.000000 1.000000
vt 0.000000 0.000000
vt 1.000000 0.000000
vt 0.000000 0.000000
vn -0.0000 -1.0000 0.0000
vn 0.0000 -0.0000 -1.0000
vn 0.0000 0.0000 1.0000
vn 1.0000 0.0000 0.0000
vn 0.0000 1.0000 -0.0000
vn -1.0000 0.0000 0.0000
g Cube__7__Scene_Face
usemtl Face
s 1
f 145/154/14 144/155/14 142/156/14 143/157/14
f 143/158/15 141/159/15 139/160/15 145/161/15
f 140/162/16 142/163/16 144/155/16 138/164/16
f 139/165/17 138/164/17 144/155/17 145/154/17
f 141/159/18 140/166/18 138/167/18 139/168/18
f 143/158/19 142/169/19 140/166/19 141/159/19
o Cube__2__Scene
v 201.800034 -160.000000 -98.599976
v -198.200027 -159.999985 -98.599976
v 201.800034 -160.000000 -58.599979
v -198.200027 -159.999985 -58.599979
v 201.800034 -200.000015 -58.599979
v -198.200027 -200.000000 -58.599979
v 201.800034 -200.000015 -98.599976
v -198.200027 -200.000000 -98.599976
vt 1.000000 0.000000
vt 0.000000 0.000000
vt 0.000000 1.000000
vt 1.000000 1.000000
vt 1.000000 0.000000
vt 1.000000 1.000000
vt 0.000000 1.000000
vt 0.000000 0.000000
vt 1.000000 1.000000
vt 1.000000 0.000000
vt 0.000000 1.000000
vt 1.000000 1.000000
vt 0.000000 1.000000
vt 0.000000 0.000000
vt 1.000000 0.000000
vt 0.000000 0.000000
vn -0.0000 -1.0000 0.0000
vn -1.0000 0.0000 0.0000
vn 1.0000 0.0000 0.0000
vn 0.0000 0.0000 -1.0000
vn 0.0000 1.0000 0.0000
vn -0.0000 0.0000 1.0000
g Cube__2__Scene_Face
usemtl Face
s 1
f 153/170/20 152/171/20 150/172/20 151/173/20
f 151/174/21 149/175/21 147/176/21 153/177/21
f 148/178/22 150/179/22 152/171/22 146/180/22
f 147/181/23 146/180/23 152/171/23 153/170/23
f 149/175/24 148/182/24 146/183/24 147/184/24
f 151/174/25 150/185/25 148/182/25 149/175/25
o Cube__5__Scene
v -158.200012 -159.999969 141.399994
v -158.200012 -160.000031 -98.599991
v -198.200012 -159.999969 141.399994
v -198.200012 -160.000015 -98.599991
v -198.200012 -199.999969 141.400009
v -198.200012 -200.000015 -98.599976
v -158.200012 -199.999969 141.400009
v -158.200012 -200.000031 -98.599976
vt 1.000000 0.000000
vt 0.000000 0.000000
vt 0.000000 1.000000
vt 1.000000 1.000000
vt 1.000000 0.000000
vt 1.000000 1.000000
vt 0.000000 1.000000
vt 0.000000 0.000000
vt 1.000000 1.000000
vt 1.000000 0.000000
vt 0.000000 1.000000
vt 1.000000 1.000000
vt 0.000000 1.000000
vt 0.000000 0.000000
vt 1.000000 0.000000
vt 0.000000 0.000000
vn -0.0000 -1.0000 0.0000
vn 0.0000 -0.0000 -1.0000
vn 0.0000 0.0000 1.0000
vn 1.0000 0.0000 0.0000
vn 0.0000 1.0000 -0.0000
vn -1.0000 0.0000 0.0000
g Cube__5__Scene_Face
usemtl Face
s 1
f 161/186/26 160/187/26 158/188/26 159/189/26
f 159/190/27 157/191/27 155/192/27 161/193/27
f 156/194/28 158/195/28 160/187/28 154/196/28
f 155/197/29 154/196/29 160/187/29 161/186/29
f 157/191/30 156/198/30 154/199/30 155/200/30
f 159/190/31 158/201/31 156/198/31 157/191/31
o Cube__4__Scene
v -158.200012 200.000031 141.399994
v -158.200012 199.999969 -98.599991
v -198.200012 200.000031 141.399994
v -198.200012 199.999985 -98.599991
v -198.200012 160.000031 141.400009
v -198.200012 159.999985 -98.599976
v -158.200012 160.000031 141.400009
v -158.200012 159.999969 -98.599976
vt 1.000000 0.000000
vt 0.000000 0.000000
vt 0.000000 1.000000
vt 1.000000 1.000000
vt 1.000000 0.000000
vt 1.000000 1.000000
vt 0.000000 1.000000
vt 0.000000 0.000000
vt 1.000000 1.000000
vt 1.000000 0.000000
vt 0.000000 1.000000
vt 1.000000 1.000000
vt 0.000000 1.000000
vt 0.000000 0.000000
vt 1.000000 0.000000
vt 0.000000 0.000000
vn -0.0000 -1.0000 0.0000
vn 0.0000 -0.0000 -1.0000
vn 0.0000 0.0000 1.0000
vn 1.0000 0.0000 0.0000
vn 0.0000 1.0000 -0.0000
vn -1.0000 0.0000 0.0000
g Cube__4__Scene_Face
usemtl Face
s 1
f 169/202/32 168/203/32 166/204/32 167/205/32
f 167/206/33 165/207/33 163/208/33 169/209/33
f 164/210/34 166/211/34 168/203/34 162/212/34
f 163/213/35 162/212/35 168/203/35 169/202/35
f 165/207/36 164/214/36 162/215/36 163/216/36
f 167/206/37 166/217/37 164/214/37 165/207/37
o Cube__3__Scene
v -198.200027 199.999969 -58.599987
v 201.800034 200.000031 -58.599964
v -198.200027 199.999954 -98.600006
v 201.800034 200.000015 -98.599983
v -198.200027 159.999939 -98.599998
v 201.800034 160.000015 -98.599976
v -198.200027 159.999954 -58.599979
v 201.800034 160.000015 -58.599957
vt 1.000000 0.000000
vt 0.000000 0.000000
vt 0.000000 1.000000
vt 1.000000 1.000000
vt 1.000000 0.000000
vt 1.000000 1.000000
vt 0.000000 1.000000
vt 0.000000 0.000000
vt 1.000000 1.000000
vt 1.000000 0.000000
vt 0.000000 1.000000
vt 1.000000 1.000000
vt 0.000000 1.000000
vt 0.000000 0.000000
vt 1.000000 0.000000
vt 0.000000 0.000000
vn 0.0000 -1.0000 0.0000
vn 1.0000 -0.0000 0.0000
vn -1.0000 -0.0000 0.0000
vn -0.0000 0.0000 1.0000
vn -0.0000 1.0000 -0.0000
vn 0.0000 -0.0000 -1.0000
g Cube__3__Scene_Face
usemtl Face
s 1
f 177/218/38 176/219/38 174/220/38 175/221/38
f 175/222/39 173/223/39 171/224/39 177/225/39
f 172/226/40 174/227/40 176/219/40 170/228/40
f 171/229/41 170/228/41 176/219/41 177/218/41
f 173/223/42 172/230/42 170/231/42 171/232/42
f 175/222/43 174/233/43 172/230/43 173/223/43
o Cube__1__Scene
v 161.800003 199.999985 -98.599983
v 161.800003 -199.999985 -98.599983
v 161.800003 199.999985 -58.599983
v 161.800003 -199.999985 -58.599983
v 201.799988 199.999985 -58.599976
v 201.799988 -199.999985 -58.599976
v 201.800003 199.999985 -98.599976
v 201.800003 -199.999985 -98.599976
vt 1.000000 0.000000
vt 0.000000 0.000000
vt 0.000000 1.000000
vt 1.000000 1.000000
vt 1.000000 0.000000
vt 1.000000 1.000000
vt 0.000000 1.000000
vt 0.000000 0.000000
vt 1.000000 1.000000
vt 1.000000 0.000000
vt 0.000000 1.000000
vt 1.000000 1.000000
vt 0.000000 1.000000
vt 0.000000 0.000000
vt 1.000000 0.000000
vt 0.000000 0.000000
vn 1.0000 0.0000 0.0000
vn 0.0000 -1.0000 0.0000
vn 0.0000 1.0000 0.0000
vn 0.0000 0.0000 -1.0000
vn -1.0000 0.0000 0.0000
vn -0.0000 0.0000 1.0000
g Cube__1__Scene_Face
usemtl Face
s 1
f 185/234/44 184/235/44 182/236/44 183/237/44
f 183/238/45 181/239/45 179/240/45 185/241/45
f 180/242/46 182/243/46 184/235/46 178/244/46
f 179/245/47 178/244/47 184/235/47 185/234/47
f 181/239/48 180/246/48 178/247/48 179/248/48
f 183/238/49 182/249/49 180/246/49 181/239/49
o Plane.001_Plane
v -397.799957 -300.000000 -171.399994
v -397.800018 300.000000 -171.399994
v -397.799957 -300.000000 128.600006
v -397.800018 300.000000 128.600006
vt 0.000000 0.000000
vt 1.000000 0.000000
vt 1.000000 1.000000
vt 0.000000 1.000000
vn 1.0000 0.0000 0.0000
g Plane.001_Plane_Material.002
usemtl Material.002
s off
f 186/250/50 187/251/50 189/252/50 188/253/50
